<svg width="800" height="800" viewBox="0 0 800 800" fill="none" xmlns="http://www.w3.org/2000/svg">
<g clip-path="url(#clip0_21_2)">
<path d="M489.625 15.531C152.029 92.755 -57.318 304.077 13.881 523.849C96.7049 779.521 626.073 862.369 767.821 744.746C909.569 627.123 526.524 473.1 702.622 265.228C809.72 138.854 766.521 -47.8181 489.625 15.531Z" fill="black"/>
<path d="M541.149 203.853C576.591 203.853 605.323 175.122 605.323 139.679C605.323 104.237 576.591 75.5052 541.149 75.5052C505.706 75.5052 476.975 104.237 476.975 139.679C476.975 175.122 505.706 203.853 541.149 203.853Z" fill="#E04F5F"/>
<path d="M349.326 305.027C384.769 305.027 413.501 276.295 413.501 240.853C413.501 205.411 384.769 176.679 349.326 176.679C313.884 176.679 285.152 205.411 285.152 240.853C285.152 276.295 313.884 305.027 349.326 305.027Z" fill="#32BEA6"/>
<path d="M190.354 461.625C225.796 461.625 254.528 432.893 254.528 397.451C254.528 362.008 225.796 333.277 190.354 333.277C154.911 333.277 126.179 362.008 126.179 397.451C126.179 432.893 154.911 461.625 190.354 461.625Z" fill="#25B6D2"/>
<path d="M311.127 644.422C346.569 644.422 375.301 615.691 375.301 580.248C375.301 544.806 346.569 516.074 311.127 516.074C275.685 516.074 246.953 544.806 246.953 580.248C246.953 615.691 275.685 644.422 311.127 644.422Z" fill="#F2B851"/>
</g>
<defs>
<clipPath id="clip0_21_2">
<rect width="800" height="800" fill="white"/>
</clipPath>
</defs>
</svg>
